<svg width="423" height="74" viewBox="127 140 423 74" fill="none" xmlns="http://www.w3.org/2000/svg">
<path d="M150.793 207.383C141.548 184.468 130.503 151.266 144.775 147.971C159.047 144.676 186.761 204.199 200.241 196.34C207.873 191.891 207.827 171.213 209.415 152.728C210.054 145.299 218.439 144.395 221.545 151.174L248.4 209.8" stroke="#F5C4C4" stroke-width="2.5" stroke-linecap="round"/>
<path d="M150.764 207.424C144.797 183.445 143.263 148.246 157.854 146.969C172.446 145.693 191.607 208.493 206.048 202.587C214.266 199.227 217.085 178.558 221.265 160.408C222.93 153.178 231.346 153.417 233.532 160.507L248.293 208.383" stroke="#F5C4C4" stroke-width="2.5" stroke-linecap="round"/>
<path d="M150.793 207.384C148.222 182.807 157.963 145.503 172.59 146.27C187.217 147.036 197.452 211.892 212.575 208.054C220.895 205.942 226.47 187.104 232.855 170.138C235.55 162.975 243.882 164.593 244.659 172.207L248.509 209.937" stroke="#F5C4C4" stroke-width="2.5" stroke-linecap="round"/>
<path d="M316.156 197H312.814V176.656C312.814 169.379 308.508 164.924 302.345 164.924C296.257 164.924 290.242 168.34 290.094 177.547V197H286.678V162.325H290.094V169.156C292.099 163.662 297.964 161.583 302.345 161.583C308.582 161.583 313.26 164.776 315.116 170.567C317.418 163.216 324.026 161.583 328.481 161.583C336.649 161.583 342.366 167.3 342.292 176.656V197H338.95V176.656C338.95 169.379 334.644 164.924 328.481 164.924C322.393 164.924 316.378 168.34 316.156 177.547V197ZM354.701 162.325V197H351.36V162.325H354.701ZM350.023 149.48C350.023 151.039 351.36 152.227 352.993 152.227C354.627 152.227 355.889 151.039 355.889 149.48C355.889 147.921 354.627 146.733 352.993 146.733C351.36 146.733 350.023 147.921 350.023 149.48ZM389.442 191.06L391.67 193.585C388.477 196.258 384.319 197.742 379.79 197.742C369.914 197.742 361.747 190.54 361.747 179.551C361.747 168.637 369.914 161.583 379.79 161.583C384.245 161.583 388.403 163.142 391.595 165.667L389.442 168.191C386.843 166.186 383.428 164.924 379.79 164.924C371.771 164.924 365.088 170.641 365.088 179.551C365.088 188.536 371.771 194.401 379.79 194.401C383.428 194.401 386.769 193.213 389.442 191.06ZM427.265 197V189.501C424.443 194.55 418.726 197.742 412.563 197.742C402.688 197.742 394.669 190.021 394.669 179.626C394.669 169.231 402.688 161.583 412.563 161.583C418.726 161.583 424.443 164.627 427.265 169.75V162.325H430.68V197H427.265ZM398.085 179.626C398.085 187.942 404.544 194.327 412.563 194.327C420.508 194.327 427.116 188.461 427.265 179.997C427.265 171.161 420.582 164.998 412.563 164.998C404.544 164.998 398.085 171.235 398.085 179.626ZM460.577 197H457.236V142.575H460.577V197ZM500.218 197V189.501C497.397 194.55 491.68 197.742 485.517 197.742C475.642 197.742 467.623 190.021 467.623 179.626C467.623 169.231 475.642 161.583 485.517 161.583C491.68 161.583 497.397 164.627 500.218 169.75V162.325H503.634V197H500.218ZM471.038 179.626C471.038 187.942 477.498 194.327 485.517 194.327C493.462 194.327 500.07 188.461 500.218 179.997C500.218 171.161 493.536 164.998 485.517 164.998C477.498 164.998 471.038 171.235 471.038 179.626ZM545.742 179.626C545.742 171.235 539.283 164.998 531.264 164.998C523.245 164.998 516.562 171.161 516.562 179.997C516.711 188.461 523.319 194.327 531.264 194.327C539.283 194.327 545.742 187.942 545.742 179.626ZM516.562 189.501V197H513.147V142.575H516.562V169.75C519.384 164.627 525.101 161.583 531.264 161.583C541.139 161.583 549.158 169.231 549.158 179.626C549.158 190.021 541.139 197.742 531.264 197.742C525.101 197.742 519.384 194.55 516.562 189.501Z" fill="#FCEDED"/>
</svg>
